<svg xmlns="http://www.w3.org/2000/svg" viewBox="0 0 512 512">
  <!-- Cyan rounded rectangle background -->
  <rect x="32" y="32" width="448" height="448" rx="96" ry="96" fill="#00D4FF"/>

  <!-- White live TV icon (based on Material Design live_tv_rounded) -->
  <g fill="white" transform="translate(256, 256) scale(5.5)">
    <!-- TV Screen outline -->
    <path d="M21 6h-7.59l3.29-3.29L16 2l-4 4-4-4-.71.71L10.59 6H3c-1.1 0-2 .9-2 2v12c0 1.1.9 2 2 2h18c1.1 0 2-.9 2-2V8c0-1.1-.9-2-2-2zm0 14H3V8h18v12z"/>
    <!-- Live dot/signal indicator -->
    <circle cx="12" cy="14" r="3"/>
  </g>
</svg>
